<mxfile host="Electron" agent="Mozilla/5.0 (X11; Linux x86_64) AppleWebKit/537.36 (KHTML, like Gecko) draw.io/24.7.17 Chrome/128.0.6613.36 Electron/32.0.1 Safari/537.36" version="24.7.17">
  <diagram name="Page-1" id="oAn4l8IlmO9DXcvYBvXZ">
    <mxGraphModel dx="1793" dy="1054" grid="1" gridSize="10" guides="1" tooltips="1" connect="1" arrows="1" fold="1" page="1" pageScale="1" pageWidth="1169" pageHeight="827" math="1" shadow="0">
      <root>
        <mxCell id="0" />
        <mxCell id="1" parent="0" />
        <mxCell id="-SVIE4Chyfj7H1_he72M-82" value="" style="rounded=0;whiteSpace=wrap;html=1;dashed=1;dashPattern=8 8;shadow=1;" vertex="1" parent="1">
          <mxGeometry x="1531" y="100" width="290" height="700" as="geometry" />
        </mxCell>
        <mxCell id="-SVIE4Chyfj7H1_he72M-79" value="" style="rounded=0;whiteSpace=wrap;html=1;dashed=1;dashPattern=8 8;shadow=1;" vertex="1" parent="1">
          <mxGeometry x="1170" y="100" width="290" height="700" as="geometry" />
        </mxCell>
        <mxCell id="-SVIE4Chyfj7H1_he72M-57" value="" style="rounded=0;whiteSpace=wrap;html=1;dashed=1;dashPattern=8 8;shadow=1;" vertex="1" parent="1">
          <mxGeometry x="770" y="100" width="330" height="700" as="geometry" />
        </mxCell>
        <mxCell id="-SVIE4Chyfj7H1_he72M-56" value="" style="rounded=0;whiteSpace=wrap;html=1;dashed=1;dashPattern=8 8;shadow=1;" vertex="1" parent="1">
          <mxGeometry x="410" y="100" width="290" height="700" as="geometry" />
        </mxCell>
        <mxCell id="-SVIE4Chyfj7H1_he72M-51" value="" style="shape=flexArrow;endArrow=classic;html=1;rounded=0;fillColor=#000000;gradientColor=none;strokeColor=none;entryX=0;entryY=0.5;entryDx=0;entryDy=0;shadow=1;" edge="1" parent="1">
          <mxGeometry width="50" height="50" relative="1" as="geometry">
            <mxPoint x="730" y="550.89" as="sourcePoint" />
            <mxPoint x="810" y="725.89" as="targetPoint" />
            <Array as="points">
              <mxPoint x="730" y="725.89" />
            </Array>
          </mxGeometry>
        </mxCell>
        <mxCell id="-SVIE4Chyfj7H1_he72M-40" value="" style="shape=flexArrow;endArrow=classic;html=1;rounded=0;fillColor=#000000;gradientColor=none;strokeColor=none;entryX=0;entryY=0.5;entryDx=0;entryDy=0;shadow=1;" edge="1" parent="1">
          <mxGeometry width="50" height="50" relative="1" as="geometry">
            <mxPoint x="730" y="370.9" as="sourcePoint" />
            <mxPoint x="810" y="545.9" as="targetPoint" />
            <Array as="points">
              <mxPoint x="730" y="545.9" />
            </Array>
          </mxGeometry>
        </mxCell>
        <mxCell id="-SVIE4Chyfj7H1_he72M-22" value="" style="rounded=0;whiteSpace=wrap;html=1;dashed=1;dashPattern=8 8;shadow=1;" vertex="1" parent="1">
          <mxGeometry x="80" y="100" width="290" height="700" as="geometry" />
        </mxCell>
        <mxCell id="-SVIE4Chyfj7H1_he72M-3" value="" style="rounded=1;whiteSpace=wrap;html=1;fillColor=#FFFFFF;shadow=1;roundedCorners=true;strokeWidth=0.5;" vertex="1" parent="1">
          <mxGeometry x="120" y="201.79" width="210" height="110" as="geometry" />
        </mxCell>
        <mxCell id="-SVIE4Chyfj7H1_he72M-4" value="$$\text{Initial}$$" style="text;html=1;align=center;verticalAlign=middle;whiteSpace=wrap;rounded=0;" vertex="1" parent="1">
          <mxGeometry x="120" y="241.79" width="210" height="11.785714285714285" as="geometry" />
        </mxCell>
        <mxCell id="-SVIE4Chyfj7H1_he72M-5" value="$$\text{System Requirements}$$" style="text;html=1;align=center;verticalAlign=middle;whiteSpace=wrap;rounded=0;" vertex="1" parent="1">
          <mxGeometry x="120" y="261.7932142857143" width="210" height="11.785714285714285" as="geometry" />
        </mxCell>
        <mxCell id="-SVIE4Chyfj7H1_he72M-8" value="" style="shape=flexArrow;endArrow=classic;html=1;rounded=0;fillColor=#000000;gradientColor=none;strokeColor=none;shadow=1;" edge="1" parent="1">
          <mxGeometry width="50" height="50" relative="1" as="geometry">
            <mxPoint x="224.5" y="311.79" as="sourcePoint" />
            <mxPoint x="224.5" y="381.79" as="targetPoint" />
          </mxGeometry>
        </mxCell>
        <mxCell id="-SVIE4Chyfj7H1_he72M-9" value="" style="rounded=1;whiteSpace=wrap;html=1;fillColor=#FFFFFF;shadow=1;roundedCorners=true;strokeWidth=0.5;" vertex="1" parent="1">
          <mxGeometry x="120" y="381.79" width="210" height="110" as="geometry" />
        </mxCell>
        <mxCell id="-SVIE4Chyfj7H1_he72M-12" value="$$\text{Background Research}$$" style="text;html=1;align=center;verticalAlign=middle;whiteSpace=wrap;rounded=0;" vertex="1" parent="1">
          <mxGeometry x="120" y="411.7894047619048" width="210" height="11.785714285714285" as="geometry" />
        </mxCell>
        <mxCell id="-SVIE4Chyfj7H1_he72M-14" value="$$\text{and}$$" style="text;html=1;align=center;verticalAlign=middle;whiteSpace=wrap;rounded=0;" vertex="1" parent="1">
          <mxGeometry x="120" y="430.90000000000003" width="210" height="11.785714285714285" as="geometry" />
        </mxCell>
        <mxCell id="-SVIE4Chyfj7H1_he72M-15" value="$$\text{Theoretical Framework}$$" style="text;html=1;align=center;verticalAlign=middle;whiteSpace=wrap;rounded=0;" vertex="1" parent="1">
          <mxGeometry x="120" y="451.79" width="210" height="11.785714285714285" as="geometry" />
        </mxCell>
        <mxCell id="-SVIE4Chyfj7H1_he72M-18" value="" style="shape=flexArrow;endArrow=classic;html=1;rounded=0;fillColor=#000000;gradientColor=none;strokeColor=none;" edge="1" parent="1">
          <mxGeometry width="50" height="50" relative="1" as="geometry">
            <mxPoint x="224.58" y="491.79" as="sourcePoint" />
            <mxPoint x="224.58" y="561.79" as="targetPoint" />
          </mxGeometry>
        </mxCell>
        <mxCell id="-SVIE4Chyfj7H1_he72M-19" value="" style="rounded=1;whiteSpace=wrap;html=1;fillColor=#FFFFFF;shadow=1;roundedCorners=true;strokeWidth=0.5;" vertex="1" parent="1">
          <mxGeometry x="120" y="561.79" width="210" height="110" as="geometry" />
        </mxCell>
        <mxCell id="-SVIE4Chyfj7H1_he72M-21" value="$$\text{Literature Review}$$" style="text;html=1;align=center;verticalAlign=middle;whiteSpace=wrap;rounded=0;" vertex="1" parent="1">
          <mxGeometry x="120" y="610.8932142857143" width="210" height="11.785714285714285" as="geometry" />
        </mxCell>
        <mxCell id="-SVIE4Chyfj7H1_he72M-23" value="" style="shape=flexArrow;endArrow=classic;html=1;rounded=0;fillColor=#000000;gradientColor=none;strokeColor=none;exitX=1;exitY=0.5;exitDx=0;exitDy=0;shadow=1;" edge="1" parent="1" source="-SVIE4Chyfj7H1_he72M-21">
          <mxGeometry width="50" height="50" relative="1" as="geometry">
            <mxPoint x="500" y="581.79" as="sourcePoint" />
            <mxPoint x="450" y="616.79" as="targetPoint" />
          </mxGeometry>
        </mxCell>
        <mxCell id="-SVIE4Chyfj7H1_he72M-24" value="" style="rounded=1;whiteSpace=wrap;html=1;fillColor=#FFFFFF;shadow=1;roundedCorners=true;strokeWidth=0.5;" vertex="1" parent="1">
          <mxGeometry x="450" y="561.79" width="210" height="110" as="geometry" />
        </mxCell>
        <mxCell id="-SVIE4Chyfj7H1_he72M-28" value="" style="edgeStyle=orthogonalEdgeStyle;rounded=0;orthogonalLoop=1;jettySize=auto;html=1;" edge="1" parent="1" source="-SVIE4Chyfj7H1_he72M-25" target="-SVIE4Chyfj7H1_he72M-21">
          <mxGeometry relative="1" as="geometry" />
        </mxCell>
        <mxCell id="-SVIE4Chyfj7H1_he72M-25" value="$$\text{Requirements Review}$$" style="text;html=1;align=center;verticalAlign=middle;whiteSpace=wrap;rounded=0;" vertex="1" parent="1">
          <mxGeometry x="450" y="610.8932142857143" width="210" height="11.785714285714285" as="geometry" />
        </mxCell>
        <mxCell id="-SVIE4Chyfj7H1_he72M-26" value="" style="rounded=1;whiteSpace=wrap;html=1;fillColor=#FFFFFF;shadow=1;roundedCorners=true;strokeWidth=0.5;" vertex="1" parent="1">
          <mxGeometry x="450" y="381.79" width="210" height="110" as="geometry" />
        </mxCell>
        <mxCell id="-SVIE4Chyfj7H1_he72M-27" value="$$\text{Design Decisions}$$" style="text;html=1;align=center;verticalAlign=middle;whiteSpace=wrap;rounded=0;" vertex="1" parent="1">
          <mxGeometry x="450" y="451.7932142857144" width="210" height="11.785714285714285" as="geometry" />
        </mxCell>
        <mxCell id="-SVIE4Chyfj7H1_he72M-30" value="" style="shape=flexArrow;endArrow=classic;html=1;rounded=0;fillColor=#000000;gradientColor=none;strokeColor=none;shadow=1;" edge="1" parent="1">
          <mxGeometry width="50" height="50" relative="1" as="geometry">
            <mxPoint x="554.5" y="561.79" as="sourcePoint" />
            <mxPoint x="554.5" y="491.79" as="targetPoint" />
          </mxGeometry>
        </mxCell>
        <mxCell id="-SVIE4Chyfj7H1_he72M-31" value="" style="shape=flexArrow;endArrow=classic;html=1;rounded=0;fillColor=#000000;gradientColor=none;strokeColor=none;shadow=1;" edge="1" parent="1">
          <mxGeometry width="50" height="50" relative="1" as="geometry">
            <mxPoint x="554.5" y="381.79" as="sourcePoint" />
            <mxPoint x="554.5" y="311.79" as="targetPoint" />
          </mxGeometry>
        </mxCell>
        <mxCell id="-SVIE4Chyfj7H1_he72M-32" value="" style="rounded=1;whiteSpace=wrap;html=1;fillColor=#FFFFFF;shadow=1;roundedCorners=true;strokeWidth=0.5;" vertex="1" parent="1">
          <mxGeometry x="450" y="201.79" width="210" height="110" as="geometry" />
        </mxCell>
        <mxCell id="-SVIE4Chyfj7H1_he72M-33" value="$$\text{Subsystem Specifications}$$" style="text;html=1;align=center;verticalAlign=middle;whiteSpace=wrap;rounded=0;" vertex="1" parent="1">
          <mxGeometry x="450" y="250.89321428571432" width="210" height="11.785714285714285" as="geometry" />
        </mxCell>
        <mxCell id="-SVIE4Chyfj7H1_he72M-34" value="" style="shape=flexArrow;endArrow=classic;html=1;rounded=0;fillColor=#000000;gradientColor=none;strokeColor=none;entryX=0;entryY=0.5;entryDx=0;entryDy=0;exitX=1;exitY=0.5;exitDx=0;exitDy=0;shadow=1;" edge="1" parent="1" source="-SVIE4Chyfj7H1_he72M-32" target="-SVIE4Chyfj7H1_he72M-35">
          <mxGeometry width="50" height="50" relative="1" as="geometry">
            <mxPoint x="730" y="185" as="sourcePoint" />
            <mxPoint x="760" y="185" as="targetPoint" />
            <Array as="points">
              <mxPoint x="730" y="257" />
              <mxPoint x="730" y="185" />
              <mxPoint x="780" y="185" />
            </Array>
          </mxGeometry>
        </mxCell>
        <mxCell id="-SVIE4Chyfj7H1_he72M-35" value="" style="rounded=1;whiteSpace=wrap;html=1;fillColor=#FFFFFF;shadow=1;roundedCorners=true;strokeWidth=0.5;" vertex="1" parent="1">
          <mxGeometry x="810" y="130" width="210" height="110" as="geometry" />
        </mxCell>
        <mxCell id="-SVIE4Chyfj7H1_he72M-36" value="$$\text{Single-Photon}$$" style="text;html=1;align=center;verticalAlign=middle;whiteSpace=wrap;rounded=0;" vertex="1" parent="1">
          <mxGeometry x="810" y="158.21" width="210" height="11.79" as="geometry" />
        </mxCell>
        <mxCell id="-SVIE4Chyfj7H1_he72M-37" value="" style="rounded=1;whiteSpace=wrap;html=1;fillColor=#FFFFFF;shadow=1;roundedCorners=true;strokeWidth=0.5;" vertex="1" parent="1">
          <mxGeometry x="810" y="310" width="210" height="110" as="geometry" />
        </mxCell>
        <mxCell id="-SVIE4Chyfj7H1_he72M-38" value="" style="rounded=1;whiteSpace=wrap;html=1;fillColor=#FFFFFF;shadow=1;roundedCorners=true;strokeWidth=0.5;" vertex="1" parent="1">
          <mxGeometry x="810" y="490" width="210" height="110" as="geometry" />
        </mxCell>
        <mxCell id="-SVIE4Chyfj7H1_he72M-39" value="" style="shape=flexArrow;endArrow=classic;html=1;rounded=0;fillColor=#000000;gradientColor=none;strokeColor=none;entryX=0;entryY=0.5;entryDx=0;entryDy=0;shadow=1;" edge="1" parent="1" target="-SVIE4Chyfj7H1_he72M-37">
          <mxGeometry width="50" height="50" relative="1" as="geometry">
            <mxPoint x="730" y="190" as="sourcePoint" />
            <mxPoint x="790" y="370.9" as="targetPoint" />
            <Array as="points">
              <mxPoint x="730" y="365" />
            </Array>
          </mxGeometry>
        </mxCell>
        <mxCell id="-SVIE4Chyfj7H1_he72M-41" value="$$\text{Qubit Initialisation}$$" style="text;html=1;align=center;verticalAlign=middle;whiteSpace=wrap;rounded=0;" vertex="1" parent="1">
          <mxGeometry x="810" y="179.10999999999999" width="210" height="11.785714285714285" as="geometry" />
        </mxCell>
        <mxCell id="-SVIE4Chyfj7H1_he72M-42" value="$$\text{Subsystem Design}$$" style="text;html=1;align=center;verticalAlign=middle;whiteSpace=wrap;rounded=0;" vertex="1" parent="1">
          <mxGeometry x="810" y="201.79" width="210" height="11.785714285714285" as="geometry" />
        </mxCell>
        <mxCell id="-SVIE4Chyfj7H1_he72M-43" value="" style="shape=flexArrow;endArrow=classic;startArrow=classic;html=1;rounded=0;entryX=0.5;entryY=1;entryDx=0;entryDy=0;exitX=0.5;exitY=0;exitDx=0;exitDy=0;fillColor=#858585;strokeColor=none;width=6.666666666666667;endSize=5.108333333333333;" edge="1" parent="1" source="-SVIE4Chyfj7H1_he72M-37" target="-SVIE4Chyfj7H1_he72M-35">
          <mxGeometry width="100" height="100" relative="1" as="geometry">
            <mxPoint x="850" y="351.78999999999996" as="sourcePoint" />
            <mxPoint x="950" y="251.79" as="targetPoint" />
          </mxGeometry>
        </mxCell>
        <mxCell id="-SVIE4Chyfj7H1_he72M-45" value="" style="shape=flexArrow;endArrow=classic;startArrow=classic;html=1;rounded=0;entryX=0.5;entryY=1;entryDx=0;entryDy=0;exitX=0.5;exitY=0;exitDx=0;exitDy=0;fillColor=#858585;strokeColor=none;width=7.5;endSize=5.666666666666667;" edge="1" parent="1">
          <mxGeometry width="100" height="100" relative="1" as="geometry">
            <mxPoint x="914.58" y="490" as="sourcePoint" />
            <mxPoint x="914.58" y="420" as="targetPoint" />
          </mxGeometry>
        </mxCell>
        <mxCell id="-SVIE4Chyfj7H1_he72M-46" value="$$\text{Flying Qubit Detection}$$" style="text;html=1;align=center;verticalAlign=middle;whiteSpace=wrap;rounded=0;" vertex="1" parent="1">
          <mxGeometry x="810" y="351.79" width="210" height="11.79" as="geometry" />
        </mxCell>
        <mxCell id="-SVIE4Chyfj7H1_he72M-47" value="$$\text{Subsystem Design}$$" style="text;html=1;align=center;verticalAlign=middle;whiteSpace=wrap;rounded=0;" vertex="1" parent="1">
          <mxGeometry x="810" y="370.89" width="210" height="11.785714285714285" as="geometry" />
        </mxCell>
        <mxCell id="-SVIE4Chyfj7H1_he72M-48" value="$$\text{Quantum Algorithm}$$" style="text;html=1;align=center;verticalAlign=middle;whiteSpace=wrap;rounded=0;" vertex="1" parent="1">
          <mxGeometry x="810" y="518.2099999999999" width="210" height="11.79" as="geometry" />
        </mxCell>
        <mxCell id="-SVIE4Chyfj7H1_he72M-49" value="$$\text{Subsystem Design}$$" style="text;html=1;align=center;verticalAlign=middle;whiteSpace=wrap;rounded=0;" vertex="1" parent="1">
          <mxGeometry x="810" y="561.79" width="210" height="11.79" as="geometry" />
        </mxCell>
        <mxCell id="-SVIE4Chyfj7H1_he72M-52" value="" style="rounded=1;whiteSpace=wrap;html=1;fillColor=#FFFFFF;shadow=1;roundedCorners=true;strokeWidth=0.5;" vertex="1" parent="1">
          <mxGeometry x="810" y="669.99" width="210" height="110" as="geometry" />
        </mxCell>
        <mxCell id="-SVIE4Chyfj7H1_he72M-53" value="$$\text{User Interface}$$" style="text;html=1;align=center;verticalAlign=middle;whiteSpace=wrap;rounded=0;" vertex="1" parent="1">
          <mxGeometry x="810" y="707.3" width="210" height="11.79" as="geometry" />
        </mxCell>
        <mxCell id="-SVIE4Chyfj7H1_he72M-54" value="$$\text{Subsystem Design}$$" style="text;html=1;align=center;verticalAlign=middle;whiteSpace=wrap;rounded=0;" vertex="1" parent="1">
          <mxGeometry x="810" y="730.88" width="210" height="11.79" as="geometry" />
        </mxCell>
        <mxCell id="-SVIE4Chyfj7H1_he72M-55" value="" style="shape=flexArrow;endArrow=classic;startArrow=classic;html=1;rounded=0;entryX=0.5;entryY=1;entryDx=0;entryDy=0;exitX=0.5;exitY=0;exitDx=0;exitDy=0;fillColor=#858585;strokeColor=none;width=7.5;endSize=5.666666666666667;" edge="1" parent="1">
          <mxGeometry width="100" height="100" relative="1" as="geometry">
            <mxPoint x="914.58" y="669.99" as="sourcePoint" />
            <mxPoint x="914.58" y="599.99" as="targetPoint" />
          </mxGeometry>
        </mxCell>
        <mxCell id="-SVIE4Chyfj7H1_he72M-58" value="$$\textbf{Phase 1: Requirements Review}$$" style="text;html=1;align=center;verticalAlign=middle;whiteSpace=wrap;rounded=0;" vertex="1" parent="1">
          <mxGeometry x="80" y="70" width="290" height="30" as="geometry" />
        </mxCell>
        <mxCell id="-SVIE4Chyfj7H1_he72M-59" value="$$\textbf{Phase 2: System Design and Planning}$$" style="text;html=1;align=center;verticalAlign=middle;whiteSpace=wrap;rounded=0;" vertex="1" parent="1">
          <mxGeometry x="410" y="70" width="290" height="30" as="geometry" />
        </mxCell>
        <mxCell id="-SVIE4Chyfj7H1_he72M-60" value="$$\textbf{Phase 3: Modelling and Design}$$" style="text;html=1;align=center;verticalAlign=middle;whiteSpace=wrap;rounded=0;" vertex="1" parent="1">
          <mxGeometry x="770" y="70" width="290" height="30" as="geometry" />
        </mxCell>
        <mxCell id="-SVIE4Chyfj7H1_he72M-61" value="" style="rounded=1;whiteSpace=wrap;html=1;fillColor=#FFFFFF;shadow=1;roundedCorners=true;strokeWidth=0.5;" vertex="1" parent="1">
          <mxGeometry x="1210" y="130" width="210" height="110" as="geometry" />
        </mxCell>
        <mxCell id="-SVIE4Chyfj7H1_he72M-62" value="$$\text{Unit Testing}$$" style="text;html=1;align=center;verticalAlign=middle;whiteSpace=wrap;rounded=0;" vertex="1" parent="1">
          <mxGeometry x="1210" y="178.20999999999998" width="210" height="11.79" as="geometry" />
        </mxCell>
        <mxCell id="-SVIE4Chyfj7H1_he72M-65" value="$$\textbf{Phase 4: Testing and Synthesis}$$" style="text;html=1;align=center;verticalAlign=middle;whiteSpace=wrap;rounded=0;" vertex="1" parent="1">
          <mxGeometry x="1169" y="70" width="290" height="30" as="geometry" />
        </mxCell>
        <mxCell id="-SVIE4Chyfj7H1_he72M-66" value="$$\text{and}$$" style="text;html=1;align=center;verticalAlign=middle;whiteSpace=wrap;rounded=0;" vertex="1" parent="1">
          <mxGeometry x="450" y="430.90000000000003" width="210" height="11.785714285714285" as="geometry" />
        </mxCell>
        <mxCell id="-SVIE4Chyfj7H1_he72M-67" value="$$\text{Functional Analysis}$$" style="text;html=1;align=center;verticalAlign=middle;whiteSpace=wrap;rounded=0;" vertex="1" parent="1">
          <mxGeometry x="450" y="411.7894047619048" width="210" height="11.785714285714285" as="geometry" />
        </mxCell>
        <mxCell id="-SVIE4Chyfj7H1_he72M-68" value="" style="shape=flexArrow;endArrow=classic;startArrow=classic;html=1;rounded=0;entryX=1;entryY=0.75;entryDx=0;entryDy=0;exitX=1;exitY=0.5;exitDx=0;exitDy=0;fillColor=#858585;strokeColor=none;width=6.666666666666667;endSize=4.441666666666667;" edge="1" parent="1" source="-SVIE4Chyfj7H1_he72M-52" target="-SVIE4Chyfj7H1_he72M-41">
          <mxGeometry width="100" height="100" relative="1" as="geometry">
            <mxPoint x="1060" y="251.79000000000002" as="sourcePoint" />
            <mxPoint x="1060" y="181.79000000000002" as="targetPoint" />
            <Array as="points">
              <mxPoint x="1070" y="725" />
              <mxPoint x="1070" y="188" />
            </Array>
          </mxGeometry>
        </mxCell>
        <mxCell id="-SVIE4Chyfj7H1_he72M-70" value="" style="rounded=1;whiteSpace=wrap;html=1;fillColor=#FFFFFF;shadow=1;roundedCorners=true;strokeWidth=0.5;" vertex="1" parent="1">
          <mxGeometry x="1210" y="310" width="210" height="110" as="geometry" />
        </mxCell>
        <mxCell id="-SVIE4Chyfj7H1_he72M-71" value="$$\text{CPU-Based Quantum}$$" style="text;html=1;align=center;verticalAlign=middle;whiteSpace=wrap;rounded=0;" vertex="1" parent="1">
          <mxGeometry x="1210" y="349.99999999999994" width="210" height="11.79" as="geometry" />
        </mxCell>
        <mxCell id="-SVIE4Chyfj7H1_he72M-72" value="" style="rounded=1;whiteSpace=wrap;html=1;fillColor=#FFFFFF;shadow=1;roundedCorners=true;strokeWidth=0.5;" vertex="1" parent="1">
          <mxGeometry x="1571" y="219.79000000000002" width="210" height="110" as="geometry" />
        </mxCell>
        <mxCell id="-SVIE4Chyfj7H1_he72M-73" value="$$\text{}$$" style="text;html=1;align=center;verticalAlign=middle;whiteSpace=wrap;rounded=0;" vertex="1" parent="1">
          <mxGeometry x="1571" y="268.00000000000006" width="210" height="11.79" as="geometry" />
        </mxCell>
        <mxCell id="-SVIE4Chyfj7H1_he72M-74" value="$$\text{Algorithm Simulations}$$" style="text;html=1;align=center;verticalAlign=middle;whiteSpace=wrap;rounded=0;" vertex="1" parent="1">
          <mxGeometry x="1210" y="369.99999999999994" width="210" height="11.79" as="geometry" />
        </mxCell>
        <mxCell id="-SVIE4Chyfj7H1_he72M-75" value="$$\text{FPGA Emulator}$$" style="text;html=1;align=center;verticalAlign=middle;whiteSpace=wrap;rounded=0;" vertex="1" parent="1">
          <mxGeometry x="1571" y="244.79000000000002" width="210" height="11.79" as="geometry" />
        </mxCell>
        <mxCell id="-SVIE4Chyfj7H1_he72M-76" value="$$\text{Performance}$$" style="text;html=1;align=center;verticalAlign=middle;whiteSpace=wrap;rounded=0;" vertex="1" parent="1">
          <mxGeometry x="1571" y="268.00000000000006" width="210" height="11.79" as="geometry" />
        </mxCell>
        <mxCell id="-SVIE4Chyfj7H1_he72M-77" value="" style="shape=flexArrow;endArrow=classic;startArrow=classic;html=1;rounded=0;entryX=0.5;entryY=1;entryDx=0;entryDy=0;exitX=0.5;exitY=0;exitDx=0;exitDy=0;fillColor=#858585;strokeColor=none;width=7.5;endSize=5.666666666666667;" edge="1" parent="1">
          <mxGeometry width="100" height="100" relative="1" as="geometry">
            <mxPoint x="1314.72" y="310" as="sourcePoint" />
            <mxPoint x="1314.72" y="240" as="targetPoint" />
          </mxGeometry>
        </mxCell>
        <mxCell id="-SVIE4Chyfj7H1_he72M-80" value="" style="shape=flexArrow;endArrow=classic;html=1;rounded=0;fillColor=#000000;gradientColor=none;strokeColor=none;entryX=0;entryY=0.5;entryDx=0;entryDy=0;shadow=1;" edge="1" parent="1" target="-SVIE4Chyfj7H1_he72M-79">
          <mxGeometry width="50" height="50" relative="1" as="geometry">
            <mxPoint x="1100" y="450" as="sourcePoint" />
            <mxPoint x="1170" y="445" as="targetPoint" />
          </mxGeometry>
        </mxCell>
        <mxCell id="-SVIE4Chyfj7H1_he72M-85" value="$$\textbf{Phase 5: Benchmarking, Analysis and Conclusion}$$" style="text;html=1;align=center;verticalAlign=middle;whiteSpace=wrap;rounded=0;" vertex="1" parent="1">
          <mxGeometry x="1530" y="70" width="290" height="30" as="geometry" />
        </mxCell>
        <mxCell id="-SVIE4Chyfj7H1_he72M-96" value="$$\text{Benchmarking}$$" style="text;html=1;align=center;verticalAlign=middle;whiteSpace=wrap;rounded=0;" vertex="1" parent="1">
          <mxGeometry x="1571" y="291.5800000000001" width="210" height="11.79" as="geometry" />
        </mxCell>
        <mxCell id="-SVIE4Chyfj7H1_he72M-97" value="" style="rounded=1;whiteSpace=wrap;html=1;fillColor=#FFFFFF;shadow=1;roundedCorners=true;strokeWidth=0.5;" vertex="1" parent="1">
          <mxGeometry x="1210" y="490" width="210" height="110" as="geometry" />
        </mxCell>
        <mxCell id="-SVIE4Chyfj7H1_he72M-98" value="$$\text{Hardware Synthesis}$$" style="text;html=1;align=center;verticalAlign=middle;whiteSpace=wrap;rounded=0;" vertex="1" parent="1">
          <mxGeometry x="1210" y="530" width="210" height="11.79" as="geometry" />
        </mxCell>
        <mxCell id="-SVIE4Chyfj7H1_he72M-99" value="$$\text{and Testing}$$" style="text;html=1;align=center;verticalAlign=middle;whiteSpace=wrap;rounded=0;" vertex="1" parent="1">
          <mxGeometry x="1210" y="550" width="210" height="11.79" as="geometry" />
        </mxCell>
        <mxCell id="-SVIE4Chyfj7H1_he72M-100" value="" style="shape=flexArrow;endArrow=classic;html=1;rounded=0;entryX=0.5;entryY=0;entryDx=0;entryDy=0;fillColor=#858585;strokeColor=none;exitX=0.5;exitY=1;exitDx=0;exitDy=0;" edge="1" parent="1">
          <mxGeometry width="50" height="50" relative="1" as="geometry">
            <mxPoint x="1314.72" y="420" as="sourcePoint" />
            <mxPoint x="1314.72" y="490" as="targetPoint" />
          </mxGeometry>
        </mxCell>
        <mxCell id="-SVIE4Chyfj7H1_he72M-101" value="" style="shape=flexArrow;endArrow=classic;html=1;rounded=0;fillColor=#000000;gradientColor=none;strokeColor=none;entryX=0;entryY=0.5;entryDx=0;entryDy=0;shadow=1;" edge="1" parent="1">
          <mxGeometry width="50" height="50" relative="1" as="geometry">
            <mxPoint x="1460" y="449.68" as="sourcePoint" />
            <mxPoint x="1530" y="449.68" as="targetPoint" />
          </mxGeometry>
        </mxCell>
        <mxCell id="-SVIE4Chyfj7H1_he72M-102" value="$$\text{Emulator}$$" style="text;html=1;align=center;verticalAlign=middle;whiteSpace=wrap;rounded=0;" vertex="1" parent="1">
          <mxGeometry x="810" y="539.11" width="210" height="11.785714285714285" as="geometry" />
        </mxCell>
        <mxCell id="-SVIE4Chyfj7H1_he72M-122" value="" style="rounded=1;whiteSpace=wrap;html=1;fillColor=#FFFFFF;shadow=1;roundedCorners=true;strokeWidth=0.5;" vertex="1" parent="1">
          <mxGeometry x="1570" y="404.9" width="210" height="110" as="geometry" />
        </mxCell>
        <mxCell id="-SVIE4Chyfj7H1_he72M-123" value="$$\text{Data Analysis}$$" style="text;html=1;align=center;verticalAlign=middle;whiteSpace=wrap;rounded=0;" vertex="1" parent="1">
          <mxGeometry x="1571" y="439.68999999999994" width="210" height="11.79" as="geometry" />
        </mxCell>
        <mxCell id="-SVIE4Chyfj7H1_he72M-124" value="$$\text{and Discussion}$$" style="text;html=1;align=center;verticalAlign=middle;whiteSpace=wrap;rounded=0;" vertex="1" parent="1">
          <mxGeometry x="1571" y="467.8999999999999" width="210" height="11.79" as="geometry" />
        </mxCell>
        <mxCell id="-SVIE4Chyfj7H1_he72M-125" value="" style="rounded=1;whiteSpace=wrap;html=1;fillColor=#FFFFFF;shadow=1;roundedCorners=true;strokeWidth=0.5;" vertex="1" parent="1">
          <mxGeometry x="1570" y="588.89" width="210" height="110" as="geometry" />
        </mxCell>
        <mxCell id="-SVIE4Chyfj7H1_he72M-126" value="$$\text{Conclusions}$$" style="text;html=1;align=center;verticalAlign=middle;whiteSpace=wrap;rounded=0;" vertex="1" parent="1">
          <mxGeometry x="1570" y="615.1099999999999" width="210" height="11.79" as="geometry" />
        </mxCell>
        <mxCell id="-SVIE4Chyfj7H1_he72M-127" value="$$\text{and}$$" style="text;html=1;align=center;verticalAlign=middle;whiteSpace=wrap;rounded=0;" vertex="1" parent="1">
          <mxGeometry x="1570" y="637.9999999999999" width="210" height="11.79" as="geometry" />
        </mxCell>
        <mxCell id="-SVIE4Chyfj7H1_he72M-128" value="$$\text{Future Recommendations}$$" style="text;html=1;align=center;verticalAlign=middle;whiteSpace=wrap;rounded=0;" vertex="1" parent="1">
          <mxGeometry x="1570" y="658.8899999999999" width="210" height="11.79" as="geometry" />
        </mxCell>
        <mxCell id="-SVIE4Chyfj7H1_he72M-129" value="" style="shape=flexArrow;endArrow=classic;html=1;rounded=0;entryX=0.5;entryY=0;entryDx=0;entryDy=0;fillColor=#858585;strokeColor=none;exitX=0.5;exitY=1;exitDx=0;exitDy=0;" edge="1" parent="1">
          <mxGeometry width="50" height="50" relative="1" as="geometry">
            <mxPoint x="1676.5" y="329.78999999999996" as="sourcePoint" />
            <mxPoint x="1675.5700000000002" y="404.9" as="targetPoint" />
          </mxGeometry>
        </mxCell>
        <mxCell id="-SVIE4Chyfj7H1_he72M-130" value="" style="shape=flexArrow;endArrow=classic;html=1;rounded=0;fillColor=#858585;strokeColor=none;exitX=0.5;exitY=1;exitDx=0;exitDy=0;entryX=0.5;entryY=0;entryDx=0;entryDy=0;" edge="1" parent="1" target="-SVIE4Chyfj7H1_he72M-125">
          <mxGeometry width="50" height="50" relative="1" as="geometry">
            <mxPoint x="1675.22" y="514.9" as="sourcePoint" />
            <mxPoint x="1675" y="590" as="targetPoint" />
          </mxGeometry>
        </mxCell>
        <mxCell id="-SVIE4Chyfj7H1_he72M-132" value="" style="rounded=1;whiteSpace=wrap;html=1;fillColor=#FFFFFF;shadow=1;roundedCorners=true;strokeWidth=0.5;" vertex="1" parent="1">
          <mxGeometry x="1210" y="670.68" width="210" height="110" as="geometry" />
        </mxCell>
        <mxCell id="-SVIE4Chyfj7H1_he72M-133" value="$$\text{Subystem}$$" style="text;html=1;align=center;verticalAlign=middle;whiteSpace=wrap;rounded=0;" vertex="1" parent="1">
          <mxGeometry x="1211" y="705.4699999999999" width="210" height="11.79" as="geometry" />
        </mxCell>
        <mxCell id="-SVIE4Chyfj7H1_he72M-134" value="$$\text{Integration Test}$$" style="text;html=1;align=center;verticalAlign=middle;whiteSpace=wrap;rounded=0;" vertex="1" parent="1">
          <mxGeometry x="1211" y="733.6799999999998" width="210" height="11.79" as="geometry" />
        </mxCell>
        <mxCell id="-SVIE4Chyfj7H1_he72M-135" value="" style="shape=flexArrow;endArrow=classic;html=1;rounded=0;entryX=0.5;entryY=0;entryDx=0;entryDy=0;fillColor=#858585;strokeColor=none;exitX=0.5;exitY=1;exitDx=0;exitDy=0;" edge="1" parent="1">
          <mxGeometry width="50" height="50" relative="1" as="geometry">
            <mxPoint x="1314.41" y="599.99" as="sourcePoint" />
            <mxPoint x="1314.41" y="669.99" as="targetPoint" />
          </mxGeometry>
        </mxCell>
        <mxCell id="-SVIE4Chyfj7H1_he72M-136" value="&lt;font color=&quot;#ffffff&quot;&gt;1&lt;/font&gt;" style="ellipse;whiteSpace=wrap;html=1;aspect=fixed;strokeWidth=0.5;fillColor=#000000;" vertex="1" parent="1">
          <mxGeometry x="130" y="213.57999999999998" width="20" height="20" as="geometry" />
        </mxCell>
        <mxCell id="-SVIE4Chyfj7H1_he72M-137" value="&lt;font color=&quot;#ffffff&quot;&gt;2&lt;/font&gt;" style="ellipse;whiteSpace=wrap;html=1;aspect=fixed;strokeWidth=0.5;fillColor=#000000;" vertex="1" parent="1">
          <mxGeometry x="130" y="394" width="20" height="20" as="geometry" />
        </mxCell>
        <mxCell id="-SVIE4Chyfj7H1_he72M-138" value="&lt;font color=&quot;#ffffff&quot;&gt;3&lt;/font&gt;" style="ellipse;whiteSpace=wrap;html=1;aspect=fixed;strokeWidth=0.5;fillColor=#000000;" vertex="1" parent="1">
          <mxGeometry x="130" y="573.5799999999999" width="20" height="20" as="geometry" />
        </mxCell>
        <mxCell id="-SVIE4Chyfj7H1_he72M-139" value="&lt;font color=&quot;#ffffff&quot;&gt;6&lt;/font&gt;" style="ellipse;whiteSpace=wrap;html=1;aspect=fixed;strokeWidth=0.5;fillColor=#000000;" vertex="1" parent="1">
          <mxGeometry x="460" y="213.57999999999998" width="20" height="20" as="geometry" />
        </mxCell>
        <mxCell id="-SVIE4Chyfj7H1_he72M-140" value="&lt;font color=&quot;#ffffff&quot;&gt;4&lt;/font&gt;" style="ellipse;whiteSpace=wrap;html=1;aspect=fixed;strokeWidth=0.5;fillColor=#000000;" vertex="1" parent="1">
          <mxGeometry x="460" y="573.58" width="20" height="20" as="geometry" />
        </mxCell>
        <mxCell id="-SVIE4Chyfj7H1_he72M-141" value="&lt;font color=&quot;#ffffff&quot;&gt;5&lt;/font&gt;" style="ellipse;whiteSpace=wrap;html=1;aspect=fixed;strokeWidth=0.5;fillColor=#000000;" vertex="1" parent="1">
          <mxGeometry x="460" y="391.78999999999996" width="20" height="20" as="geometry" />
        </mxCell>
        <mxCell id="-SVIE4Chyfj7H1_he72M-142" value="&lt;font color=&quot;#ffffff&quot;&gt;7.1&lt;/font&gt;" style="ellipse;whiteSpace=wrap;html=1;aspect=fixed;strokeWidth=0.5;fillColor=#000000;" vertex="1" parent="1">
          <mxGeometry x="820" y="138.21" width="21.79" height="21.79" as="geometry" />
        </mxCell>
        <mxCell id="-SVIE4Chyfj7H1_he72M-143" value="&lt;font color=&quot;#ffffff&quot;&gt;7.2&lt;/font&gt;" style="ellipse;whiteSpace=wrap;html=1;aspect=fixed;strokeWidth=0.5;fillColor=#000000;" vertex="1" parent="1">
          <mxGeometry x="820" y="320" width="21.79" height="21.79" as="geometry" />
        </mxCell>
        <mxCell id="-SVIE4Chyfj7H1_he72M-144" value="&lt;font color=&quot;#ffffff&quot;&gt;7.3&lt;/font&gt;" style="ellipse;whiteSpace=wrap;html=1;aspect=fixed;strokeWidth=0.5;fillColor=#000000;" vertex="1" parent="1">
          <mxGeometry x="820" y="500" width="21.79" height="21.79" as="geometry" />
        </mxCell>
        <mxCell id="-SVIE4Chyfj7H1_he72M-145" value="&lt;font color=&quot;#ffffff&quot;&gt;7.4&lt;/font&gt;" style="ellipse;whiteSpace=wrap;html=1;aspect=fixed;strokeWidth=0.5;fillColor=#000000;" vertex="1" parent="1">
          <mxGeometry x="820" y="683.6800000000001" width="21.79" height="21.79" as="geometry" />
        </mxCell>
        <mxCell id="-SVIE4Chyfj7H1_he72M-146" value="&lt;font color=&quot;#ffffff&quot;&gt;8&lt;/font&gt;" style="ellipse;whiteSpace=wrap;html=1;aspect=fixed;strokeWidth=0.5;fillColor=#000000;" vertex="1" parent="1">
          <mxGeometry x="1220" y="138.20999999999998" width="21.79" height="21.79" as="geometry" />
        </mxCell>
        <mxCell id="-SVIE4Chyfj7H1_he72M-147" value="&lt;font color=&quot;#ffffff&quot;&gt;9&lt;/font&gt;" style="ellipse;whiteSpace=wrap;html=1;aspect=fixed;strokeWidth=0.5;fillColor=#000000;" vertex="1" parent="1">
          <mxGeometry x="1220" y="320" width="21.79" height="21.79" as="geometry" />
        </mxCell>
        <mxCell id="-SVIE4Chyfj7H1_he72M-148" value="&lt;font color=&quot;#ffffff&quot;&gt;10&lt;/font&gt;" style="ellipse;whiteSpace=wrap;html=1;aspect=fixed;strokeWidth=0.5;fillColor=#000000;" vertex="1" parent="1">
          <mxGeometry x="1220" y="500" width="21.79" height="21.79" as="geometry" />
        </mxCell>
        <mxCell id="-SVIE4Chyfj7H1_he72M-149" value="&lt;font color=&quot;#ffffff&quot;&gt;11&lt;/font&gt;" style="ellipse;whiteSpace=wrap;html=1;aspect=fixed;strokeWidth=0.5;fillColor=#000000;" vertex="1" parent="1">
          <mxGeometry x="1220" y="683.6800000000001" width="21.79" height="21.79" as="geometry" />
        </mxCell>
        <mxCell id="-SVIE4Chyfj7H1_he72M-150" value="&lt;font color=&quot;#ffffff&quot;&gt;12&lt;/font&gt;" style="ellipse;whiteSpace=wrap;html=1;aspect=fixed;strokeWidth=0.5;fillColor=#000000;" vertex="1" parent="1">
          <mxGeometry x="1580" y="231.79000000000002" width="21.79" height="21.79" as="geometry" />
        </mxCell>
        <mxCell id="-SVIE4Chyfj7H1_he72M-151" value="&lt;font color=&quot;#ffffff&quot;&gt;13&lt;/font&gt;" style="ellipse;whiteSpace=wrap;html=1;aspect=fixed;strokeWidth=0.5;fillColor=#000000;" vertex="1" parent="1">
          <mxGeometry x="1580" y="414" width="21.79" height="21.79" as="geometry" />
        </mxCell>
        <mxCell id="-SVIE4Chyfj7H1_he72M-152" value="&lt;font color=&quot;#ffffff&quot;&gt;14&lt;/font&gt;" style="ellipse;whiteSpace=wrap;html=1;aspect=fixed;strokeWidth=0.5;fillColor=#000000;" vertex="1" parent="1">
          <mxGeometry x="1580" y="600" width="21.79" height="21.79" as="geometry" />
        </mxCell>
      </root>
    </mxGraphModel>
  </diagram>
</mxfile>
